<?xml version="1.0" encoding="UTF-8" standalone="no"?>
<!-- Created with Inkscape (http://www.inkscape.org/) -->

<svg
   version="1.1"
   id="svg2"
   width="793.70135"
   height="389.18668"
   viewBox="0 0 793.70135 389.18668"
   sodipodi:docname="testlogo.ai"
   xmlns:inkscape="http://www.inkscape.org/namespaces/inkscape"
   xmlns:sodipodi="http://sodipodi.sourceforge.net/DTD/sodipodi-0.dtd"
   xmlns="http://www.w3.org/2000/svg"
   xmlns:svg="http://www.w3.org/2000/svg">
  <defs
     id="defs6">
    <clipPath
       clipPathUnits="userSpaceOnUse"
       id="clipPath16">
      <path
         d="M 0,291.89 H 595.276 V 0 H 0 Z"
         id="path14" />
    </clipPath>
  </defs>
  <sodipodi:namedview
     id="namedview4"
     pagecolor="#ffffff"
     bordercolor="#000000"
     borderopacity="0.25"
     inkscape:showpageshadow="2"
     inkscape:pageopacity="0.0"
     inkscape:pagecheckerboard="0"
     inkscape:deskcolor="#d1d1d1" />
  <g
     id="g8"
     inkscape:groupmode="layer"
     inkscape:label="testlogo"
     transform="matrix(1.3333333,0,0,-1.3333333,0,389.18667)">
    <g
       id="g10">
      <g
         id="g12"
         clip-path="url(#clipPath16)">
        <g
           id="g18"
           transform="translate(473.1548,157.2218)">
          <path
             d="M 0,0 C 0.467,-1.018 1.165,-0.886 1.781,-0.898 4.49,-0.952 7.2,-0.957 9.909,-1.029 c 10.567,-0.283 21.134,-0.569 31.7,-0.886 4.99,-0.15 9.978,-0.372 14.967,-0.563 0.31,-0.012 0.619,-0.043 0.918,-0.256 -2.379,-0.049 -4.76,-0.042 -7.136,-0.157 C 46.331,-3.087 42.308,-3.359 38.283,-3.598 37.912,-3.62 37.54,-3.637 37.168,-3.646 26.229,-3.923 15.289,-4.192 4.35,-4.477 0.74,-4.571 -2.87,-4.709 -6.48,-4.817 c -0.403,-0.012 -0.808,0.041 -1.528,0.081 4.899,7.89 9.668,15.571 14.604,23.52 -0.922,0.132 -1.523,0.29 -2.124,0.292 -2.335,0.007 -4.67,-0.033 -7.005,-0.061 -6.641,-0.08 -13.281,-0.166 -19.922,-0.24 -0.35,-0.004 -0.7,0.079 -1.287,0.15 0.783,1.202 1.425,2.27 2.149,3.279 1.352,1.883 2.761,3.726 4.13,5.597 1.683,2.299 3.361,4.602 5.02,6.918 1.66,2.316 3.276,4.664 4.944,6.975 2.347,3.251 4.736,6.472 7.086,9.722 2.136,2.954 4.224,5.943 6.368,8.891 1.801,2.476 3.666,4.906 5.476,7.376 1.061,1.447 2.049,2.947 3.107,4.396 1.86,2.547 3.749,5.074 5.83,7.886 0.04,-0.572 0.124,-0.822 0.062,-1.029 -1.128,-3.731 -2.271,-7.458 -3.415,-11.185 -0.927,-3.019 -1.872,-6.033 -2.784,-9.058 -0.764,-2.538 -1.477,-5.092 -2.24,-7.63 C 11.414,49.145 10.774,47.245 10.2,45.327 9.793,43.968 9.451,42.59 9.073,41.223 8.975,40.869 8.817,40.531 8.741,40.173 8.624,39.625 8.554,39.066 8.445,38.39 c 0.56,-0.098 0.961,-0.222 1.364,-0.229 4.727,-0.082 9.455,-0.119 14.181,-0.223 3.345,-0.073 6.687,-0.267 10.031,-0.34 5.843,-0.129 11.688,-0.174 17.53,-0.313 7.435,-0.176 14.891,-0.127 22.297,-0.706 6.421,-0.502 12.835,-0.437 19.25,-0.659 0.596,-0.021 1.185,-0.26 1.747,-0.694 C 94.397,35.196 93.949,35.151 93.5,35.139 88.933,35.019 84.365,34.916 79.797,34.786 72.151,34.567 64.506,34.305 56.86,34.112 47.938,33.886 39.015,33.724 30.093,33.513 25.688,33.409 21.285,33.217 16.88,33.138 11.729,33.046 6.577,33.031 1.425,32.995 1.024,32.992 0.623,33.088 -0.014,33.168 2.634,39.188 5.209,45.043 7.827,50.995 6.945,51.16 6.582,50.607 6.226,50.124 5.471,49.101 4.772,48.037 4.021,47.011 c -2.15,-2.935 -4.315,-5.86 -6.473,-8.79 -2.945,-4 -5.891,-7.999 -8.829,-12.004 -0.213,-0.29 -0.36,-0.628 -0.658,-1.159 0.568,-0.118 1.008,-0.313 1.427,-0.276 1.258,0.111 2.446,-0.364 3.75,-0.2 1.492,0.188 3.049,-0.228 4.579,-0.244 5.79,-0.061 11.58,-0.064 17.37,-0.097 0.309,-0.001 0.617,-0.07 1.153,-0.136 C 13.541,19.994 10.827,16.02 8.126,12.036 5.404,8.02 2.696,3.995 0,0"
             style="fill:#10afff;fill-opacity:1;fill-rule:nonzero;stroke:none"
             id="path20" />
        </g>
        <g
           id="g22"
           transform="translate(439.7086,152.218)">
          <path
             d="m 0,0 c -0.866,0.129 -1.574,0.295 -2.289,0.33 -4.19,0.205 -8.381,0.374 -12.572,0.563 -4.509,0.203 -9.02,0.371 -13.526,0.637 -4.337,0.256 -8.669,0.617 -13.041,0.935 15.905,0.622 31.785,1.242 47.937,1.873 -0.973,-3.589 -2.87,-6.535 -4.037,-9.773 -1.171,-3.248 -2.973,-6.25 -4.135,-9.892 0.575,0.261 0.919,0.305 1.057,0.497 2.982,4.162 5.921,8.355 8.914,12.508 1.51,2.096 3.138,4.108 4.663,6.193 1.839,2.515 3.641,5.058 5.417,7.618 0.236,0.339 0.44,0.981 0.276,1.242 -0.191,0.302 -0.805,0.472 -1.234,0.468 -8.123,-0.06 -16.245,-0.161 -24.368,-0.23 -0.824,-0.007 -1.649,0.139 -2.75,0.24 0.664,0.999 1.247,1.885 1.838,2.767 1.148,1.715 2.287,3.435 3.453,5.138 1.724,2.52 3.473,5.023 5.202,7.54 0.419,0.611 0.784,1.259 1.198,1.874 1.418,2.103 2.866,4.188 4.256,6.309 0.264,0.403 0.321,0.942 0.473,1.418 -0.488,0.135 -0.971,0.363 -1.465,0.388 -1.591,0.082 -3.186,0.083 -4.779,0.127 -9.132,0.251 -18.264,0.507 -27.396,0.759 -6.265,0.173 -12.529,0.35 -18.794,0.514 -9.398,0.245 -18.796,0.48 -28.193,0.721 -0.527,0.013 -1.053,0.046 -1.583,0.222 3.671,0.252 7.338,0.61 11.013,0.731 5.84,0.192 11.686,0.198 17.527,0.335 7.858,0.186 15.715,0.423 23.572,0.635 7.592,0.206 15.185,0.398 22.777,0.617 5.15,0.149 10.298,0.336 15.447,0.499 0.679,0.021 1.359,0.003 2.383,0.003 C 11.942,35.59 6.823,27.651 1.53,19.445 c 0.904,-0.138 1.496,-0.303 2.09,-0.307 2.497,-0.016 4.994,0.016 7.49,0.032 6.374,0.042 12.749,0.087 19.123,0.122 0.357,0.002 0.715,-0.073 1.232,-0.13 C 30.798,17.649 29.868,16.463 28.962,15.255 27.666,13.528 26.424,11.761 25.143,10.023 23.48,7.767 21.786,5.534 20.134,3.269 18.736,1.353 17.394,-0.603 16.001,-2.523 14.482,-4.618 12.92,-6.682 11.399,-8.775 9.195,-11.808 7.026,-14.866 4.812,-17.89 c -1.618,-2.209 -3.292,-4.377 -4.926,-6.574 -0.568,-0.762 -1.074,-1.571 -1.64,-2.334 -2.64,-3.557 -5.292,-7.105 -7.939,-10.656 -1.006,-1.35 -2.01,-2.701 -3.266,-4.004 0.038,0.37 0.01,0.762 0.124,1.106 0.962,2.899 1.982,5.778 2.918,8.685 0.596,1.851 1.045,3.748 1.62,5.606 0.654,2.114 1.377,4.206 2.066,6.309 0.79,2.416 1.57,4.835 2.363,7.25 0.901,2.744 1.833,5.478 2.707,8.23 C -0.748,-2.97 -0.44,-1.635 0,0"
             style="fill:#10afff;fill-opacity:1;fill-rule:nonzero;stroke:none"
             id="path24" />
        </g>
        <g
           id="g26"
           transform="translate(144.7668,89.9354)">
          <path
             d="M 0,0 H -5.497 V -14.339 H -8.332 V 0 h -5.497 V 2.613 H 0 Z"
             style="fill:#10afff;fill-opacity:1;fill-rule:nonzero;stroke:none"
             id="path28" />
        </g>
        <g
           id="g30"
           transform="translate(167.1517,78.1868)">
          <path
             d="M 0,0 V -2.59 H -12.619 V 14.362 H -0.147 V 11.795 H -9.81 V 7.266 h 9.251 V 4.748 H -9.81 V 0 Z"
             style="fill:#10afff;fill-opacity:1;fill-rule:nonzero;stroke:none"
             id="path32" />
        </g>
        <g
           id="g34"
           transform="translate(176.6499,84.0727)">
          <path
             d="m 0,0 c 0,5.183 3.656,8.816 8.865,8.816 2.469,0 4.624,-0.896 6.321,-2.616 L 13.296,4.457 C 12.132,5.618 10.703,6.226 8.96,6.226 5.353,6.226 2.858,3.682 2.858,0 c 0,-3.682 2.495,-6.223 6.102,-6.223 1.697,0 3.342,0.654 4.529,1.815 l 1.818,-1.887 C 13.61,-7.966 11.455,-8.816 8.888,-8.816 3.633,-8.816 0,-5.183 0,0"
             style="fill:#10afff;fill-opacity:1;fill-rule:nonzero;stroke:none"
             id="path36" />
        </g>
        <g
           id="g38"
           transform="translate(216.4711,92.5487)">
          <path
             d="m 0,0 v -16.952 h -2.832 v 7.289 h -8.842 v -7.289 h -2.832 V 0 h 2.832 v -7.021 h 8.842 V 0 Z"
             style="fill:#10afff;fill-opacity:1;fill-rule:nonzero;stroke:none"
             id="path40" />
        </g>
        <g
           id="g42"
           transform="translate(242.4375,92.5487)">
          <path
             d="m 0,0 v -16.952 h -2.567 l -9.156,12.109 0.023,-5.399 v -6.71 h -2.832 V 0 h 2.567 l 9.156,-12.109 -0.026,5.062 V 0 Z"
             style="fill:#10afff;fill-opacity:1;fill-rule:nonzero;stroke:none"
             id="path44" />
        </g>
        <g
           id="g46"
           transform="translate(267.4589,84.0727)">
          <path
             d="m 0,0 c 0,3.705 -2.374,6.226 -5.86,6.226 -3.512,0 -5.886,-2.521 -5.886,-6.226 0,-3.705 2.374,-6.223 5.886,-6.223 C -2.374,-6.223 0,-3.705 0,0 m -14.604,0 c 0,5.281 3.512,8.839 8.744,8.839 5.206,0 8.718,-3.558 8.718,-8.839 0,-5.278 -3.512,-8.839 -8.718,-8.839 -5.232,0 -8.744,3.561 -8.744,8.839"
             style="fill:#10afff;fill-opacity:1;fill-rule:nonzero;stroke:none"
             id="path48" />
        </g>
        <g
           id="g50"
           transform="translate(280.7343,92.5487)">
          <path
             d="m 0,0 h 2.832 v -14.313 h 8.937 v -2.639 H 0 Z"
             style="fill:#10afff;fill-opacity:1;fill-rule:nonzero;stroke:none"
             id="path52" />
        </g>
        <g
           id="g54"
           transform="translate(315.4961,84.0727)">
          <path
             d="m 0,0 c 0,3.705 -2.374,6.226 -5.86,6.226 -3.512,0 -5.886,-2.521 -5.886,-6.226 0,-3.705 2.374,-6.223 5.886,-6.223 C -2.374,-6.223 0,-3.705 0,0 m -14.604,0 c 0,5.281 3.512,8.839 8.744,8.839 5.206,0 8.718,-3.558 8.718,-8.839 0,-5.278 -3.512,-8.839 -8.718,-8.839 -5.232,0 -8.744,3.561 -8.744,8.839"
             style="fill:#10afff;fill-opacity:1;fill-rule:nonzero;stroke:none"
             id="path56" />
        </g>
        <g
           id="g58"
           transform="translate(343.4244,85.2365)">
          <path
             d="m 0,0 v -7.194 c -1.89,-1.89 -4.117,-2.786 -6.903,-2.786 -5.281,0 -8.767,3.489 -8.767,8.816 0,5.183 3.656,8.816 8.96,8.816 2.423,0 4.627,-0.896 6.298,-2.616 L -2.23,3.221 c -1.138,1.138 -2.858,1.815 -4.503,1.815 -3.61,0 -6.105,-2.495 -6.105,-6.2 0,-3.777 2.325,-6.2 5.935,-6.2 1.694,0 3.077,0.435 4.287,1.38 v 3.489 H -7.364 V 0 Z"
             style="fill:#10afff;fill-opacity:1;fill-rule:nonzero;stroke:none"
             id="path60" />
        </g>
        <path
           d="m 354.058,92.549 h 2.832 V 75.597 h -2.832 z"
           style="fill:#10afff;fill-opacity:1;fill-rule:nonzero;stroke:none"
           id="path62" />
        <g
           id="g64"
           transform="translate(380.954,78.1868)">
          <path
             d="M 0,0 V -2.59 H -12.619 V 14.362 H -0.147 V 11.795 H -9.81 V 7.266 h 9.251 V 4.748 H -9.81 V 0 Z"
             style="fill:#10afff;fill-opacity:1;fill-rule:nonzero;stroke:none"
             id="path66" />
        </g>
        <g
           id="g68"
           transform="translate(390.5733,77.6306)">
          <path
             d="M 0,0 1.478,2.132 C 2.907,0.945 5.062,0.219 7.145,0.219 c 2.469,0 4.068,0.991 4.068,2.518 0,1.406 -1.308,2.155 -4.238,2.544 -4.601,0.628 -6.563,2.155 -6.563,5.134 0,2.832 2.688,4.843 6.563,4.843 2.253,0 4.552,-0.775 6.272,-2.106 l -1.429,-2.011 c -1.403,1.066 -3.146,1.622 -4.82,1.622 -2.227,0 -3.8,-0.991 -3.8,-2.374 0,-1.354 1.21,-2.129 4.068,-2.541 4.794,-0.703 6.805,-2.155 6.805,-5.039 0,-3.123 -2.76,-5.183 -6.926,-5.183 C 4.578,-2.374 1.985,-1.524 0,0"
             style="fill:#10afff;fill-opacity:1;fill-rule:nonzero;stroke:none"
             id="path70" />
        </g>
        <path
           d="m 211.144,67.337 h 1.205 v -6.759 h -1.205 z"
           style="fill:#0c2635;fill-opacity:1;fill-rule:nonzero;stroke:none"
           id="path72" />
        <g
           id="g74"
           transform="translate(221.5974,67.3265)">
          <path
             d="m 0,0 v -6.759 l -1.208,0.927 -4.346,3.353 v -4.28 h -1.207 v 6.741 l 1.207,-0.927 4.346,-3.352 V 0.01 Z"
             style="fill:#0c2635;fill-opacity:1;fill-rule:nonzero;stroke:none"
             id="path76" />
        </g>
        <g
           id="g78"
           transform="translate(230.8459,67.3265)">
          <path
             d="m 0,0 v -1.208 h -2.77 v -5.551 h -1.208 v 5.551 H -6.751 V 0 Z"
             style="fill:#0c2635;fill-opacity:1;fill-rule:nonzero;stroke:none"
             id="path80" />
        </g>
        <g
           id="g82"
           transform="translate(234.5613,65.5113)">
          <path
             d="M 0,0 V -0.628 H 4.346 V -1.833 H 0 V -3.108 C 0,-3.445 0.281,-3.726 0.618,-3.726 H 5.554 V -4.933 H 0.618 c -1.004,0 -1.815,0.821 -1.815,1.825 V 0 c 0,1.004 0.811,1.826 1.815,1.826 H 5.554 V 0.618 H 0.618 C 0.281,0.618 0,0.34 0,0"
             style="fill:#0c2635;fill-opacity:1;fill-rule:nonzero;stroke:none"
             id="path84" />
        </g>
        <g
           id="g86"
           transform="translate(243.2871,63.9561)">
          <path
             d="m 0,0 c 0,-1.195 0.976,-2.171 2.173,-2.171 h 2.173 v 1.293 H 2.173 V 0.33 H 5.551 V -3.378 H 2.173 c -1.864,0 -3.378,1.516 -3.378,3.378 0,1.864 1.514,3.381 3.378,3.381 H 5.551 V 2.173 H 2.173 C 0.976,2.173 0,1.2 0,0"
             style="fill:#0c2635;fill-opacity:1;fill-rule:nonzero;stroke:none"
             id="path88" />
        </g>
        <g
           id="g90"
           transform="translate(255.597,64.8753)">
          <path
             d="M 0,0 C 0.088,0 0.175,0.018 0.252,0.057 0.474,0.154 0.618,0.376 0.618,0.618 0.618,0.839 0.502,0.994 0.435,1.061 0.358,1.138 0.214,1.236 0,1.236 H -3.061 V -0.01 Z M 1.197,-3.11 1.815,-4.318 H 0.463 l -0.617,1.208 -0.647,1.264 -0.028,0.059 c -0.214,0.348 -0.59,0.579 -1.025,0.579 h -1.207 v -3.11 H -4.266 V 2.443 H 0 C 0.502,2.443 0.955,2.24 1.285,1.91 1.614,1.583 1.815,1.13 1.815,0.626 1.815,-0.106 1.383,-0.744 0.754,-1.032 0.59,-1.11 0.415,-1.159 0.232,-1.179 Z"
             style="fill:#0c2635;fill-opacity:1;fill-rule:nonzero;stroke:none"
             id="path92" />
        </g>
        <g
           id="g94"
           transform="translate(266.429,60.578)">
          <path
             d="M 0,0 H -1.352 L -1.97,1.208 -3.448,4.104 -4.923,1.208 -5.541,0 h -1.354 l 0.618,1.208 2.829,5.551 2.83,-5.551 z"
             style="fill:#0c2635;fill-opacity:1;fill-rule:nonzero;stroke:none"
             id="path96" />
        </g>
        <g
           id="g98"
           transform="translate(273.3757,67.3265)">
          <path
             d="m 0,0 v -1.208 h -2.77 v -5.551 h -1.208 v 5.551 H -6.751 V 0 Z"
             style="fill:#0c2635;fill-opacity:1;fill-rule:nonzero;stroke:none"
             id="path100" />
        </g>
        <g
           id="g102"
           transform="translate(277.0911,65.5113)">
          <path
             d="M 0,0 V -0.628 H 4.346 V -1.833 H 0 V -3.108 C 0,-3.445 0.281,-3.726 0.618,-3.726 H 5.554 V -4.933 H 0.618 c -1.004,0 -1.815,0.821 -1.815,1.825 V 0 c 0,1.004 0.811,1.826 1.815,1.826 H 5.554 V 0.618 H 0.618 C 0.281,0.618 0,0.34 0,0"
             style="fill:#0c2635;fill-opacity:1;fill-rule:nonzero;stroke:none"
             id="path104" />
        </g>
        <g
           id="g106"
           transform="translate(291.9036,67.3368)">
          <path
             d="m 0,0 v -3.381 c 0,-1.861 -1.517,-3.378 -3.381,-3.378 -1.864,0 -3.38,1.517 -3.38,3.378 V 0 h 1.207 v -3.381 c 0,-1.194 0.976,-2.17 2.173,-2.17 1.198,0 2.173,0.976 2.173,2.17 l 0,3.381 z"
             style="fill:#0c2635;fill-opacity:1;fill-rule:nonzero;stroke:none"
             id="path108" />
        </g>
        <g
           id="g110"
           transform="translate(298.6598,64.8753)">
          <path
             d="M 0,0 C 0.088,0 0.175,0.018 0.252,0.057 0.474,0.154 0.618,0.376 0.618,0.618 0.618,0.839 0.502,0.994 0.435,1.061 0.358,1.138 0.214,1.236 0,1.236 H -3.059 V -0.01 Z M 1.197,-3.11 1.815,-4.318 H 0.463 l -0.617,1.208 -0.647,1.264 -0.028,0.059 c -0.214,0.348 -0.59,0.579 -1.025,0.579 h -1.205 v -3.11 H -4.266 V 2.443 H 0 C 0.502,2.443 0.958,2.24 1.285,1.91 1.612,1.583 1.815,1.13 1.815,0.626 1.815,-0.106 1.38,-0.744 0.754,-1.032 0.59,-1.11 0.417,-1.159 0.232,-1.179 Z"
             style="fill:#0c2635;fill-opacity:1;fill-rule:nonzero;stroke:none"
             id="path112" />
        </g>
        <g
           id="g114"
           transform="translate(314.7571,63.9484)">
          <path
             d="m 0,0 c 0,1.197 -0.976,2.171 -2.173,2.171 h -2.173 v -4.344 h 2.173 C -0.976,-2.173 0,-1.197 0,0 m -2.173,3.378 c 1.864,0 3.381,-1.506 3.381,-3.37 0,-0.829 -0.302,-1.591 -0.801,-2.181 C 0.348,-2.24 0.281,-2.31 0.211,-2.376 -0.397,-2.994 -1.236,-3.37 -2.163,-3.37 h -3.378 v 6.758 h 3.378 z"
             style="fill:#0c2635;fill-opacity:1;fill-rule:nonzero;stroke:none"
             id="path116" />
        </g>
        <g
           id="g118"
           transform="translate(319.68,65.5113)">
          <path
             d="M 0,0 V -0.628 H 4.346 V -1.833 H 0 V -3.108 C 0,-3.445 0.281,-3.726 0.618,-3.726 H 5.551 V -4.933 H 0.618 c -1.004,0 -1.815,0.821 -1.815,1.825 V 0 c 0,1.004 0.811,1.826 1.815,1.826 H 5.551 V 0.618 H 0.618 C 0.281,0.618 0,0.34 0,0"
             style="fill:#0c2635;fill-opacity:1;fill-rule:nonzero;stroke:none"
             id="path120" />
        </g>
        <g
           id="g122"
           transform="translate(339.1452,65.4649)">
          <path
             d="m 0,0 v 0.036 c 0,0.34 -0.278,0.618 -0.618,0.618 H -3.36 c -0.337,0 -0.618,-0.278 -0.618,-0.618 V 0 c 0,-0.34 0.281,-0.618 0.618,-0.618 h 2.433 c 0.628,0 1.19,-0.273 1.576,-0.695 0.028,-0.031 0.046,-0.059 0.077,-0.088 0.299,-0.368 0.482,-0.839 0.482,-1.351 0,-1.18 -0.956,-2.135 -2.135,-2.135 h -2.114 c -1.176,0 -2.134,0.955 -2.134,2.135 h 1.207 c 0,-0.513 0.415,-0.927 0.927,-0.927 h 2.114 c 0.512,0 0.937,0.414 0.937,0.927 0,0.512 -0.425,0.926 -0.937,0.926 H -3.36 c -0.492,0 -0.935,0.194 -1.264,0.513 -0.088,0.085 -0.165,0.183 -0.232,0.288 -0.203,0.289 -0.319,0.647 -0.319,1.033 v 0.038 c 0,1.004 0.811,1.826 1.815,1.826 h 2.742 c 1.004,0 1.826,-0.822 1.826,-1.826 V 0.008 Z"
             style="fill:#0c2635;fill-opacity:1;fill-rule:nonzero;stroke:none"
             id="path124" />
        </g>
        <g
           id="g126"
           transform="translate(348.1722,63.9561)">
          <path
             d="M 0,0 C 0,1.2 -0.976,2.173 -2.173,2.173 -3.37,2.173 -4.346,1.2 -4.346,0 c 0,-1.195 0.976,-2.171 2.173,-2.171 C -0.976,-2.171 0,-1.195 0,0 m 1.205,0 c 0,-1.862 -1.514,-3.378 -3.378,-3.378 -1.864,0 -3.378,1.516 -3.378,3.378 0,1.864 1.514,3.381 3.378,3.381 1.864,0 3.378,-1.517 3.378,-3.381"
             style="fill:#0c2635;fill-opacity:1;fill-rule:nonzero;stroke:none"
             id="path128" />
        </g>
        <g
           id="g130"
           transform="translate(357.2173,61.7753)">
          <path
             d="m 0,0 v -1.208 h -3.427 c -0.337,0 -0.657,0.078 -0.947,0.222 -0.423,0.214 -0.773,0.561 -0.974,0.986 -0.144,0.291 -0.221,0.608 -0.221,0.945 v 4.606 h 1.205 V 0.832 C -4.305,0.404 -3.968,0.067 -3.543,0.01 Z"
             style="fill:#0c2635;fill-opacity:1;fill-rule:nonzero;stroke:none"
             id="path132" />
        </g>
        <g
           id="g134"
           transform="translate(365.7269,67.3368)">
          <path
             d="m 0,0 v -3.381 c 0,-1.861 -1.514,-3.378 -3.378,-3.378 -1.864,0 -3.378,1.517 -3.378,3.378 V 0 h 1.205 v -3.381 c 0,-1.194 0.976,-2.17 2.173,-2.17 1.197,0 2.173,0.976 2.173,2.17 V 0 Z"
             style="fill:#0c2635;fill-opacity:1;fill-rule:nonzero;stroke:none"
             id="path136" />
        </g>
        <g
           id="g138"
           transform="translate(374.978,67.3265)">
          <path
             d="m 0,0 v -1.208 h -2.773 v -5.551 h -1.205 v 5.551 h -2.77 V 0 Z"
             style="fill:#0c2635;fill-opacity:1;fill-rule:nonzero;stroke:none"
             id="path140" />
        </g>
        <path
           d="m 377.488,67.337 h 1.205 v -6.759 h -1.205 z"
           style="fill:#0c2635;fill-opacity:1;fill-rule:nonzero;stroke:none"
           id="path142" />
        <g
           id="g144"
           transform="translate(386.5052,63.9561)">
          <path
             d="M 0,0 C 0,1.2 -0.976,2.173 -2.173,2.173 -3.37,2.173 -4.346,1.2 -4.346,0 c 0,-1.195 0.976,-2.171 2.173,-2.171 C -0.976,-2.171 0,-1.195 0,0 m 1.205,0 c 0,-1.862 -1.514,-3.378 -3.378,-3.378 -1.864,0 -3.378,1.516 -3.378,3.378 0,1.864 1.514,3.381 3.378,3.381 1.864,0 3.378,-1.517 3.378,-3.381"
             style="fill:#0c2635;fill-opacity:1;fill-rule:nonzero;stroke:none"
             id="path146" />
        </g>
        <g
           id="g148"
           transform="translate(396.7372,67.3265)">
          <path
             d="m 0,0 v -6.759 l -1.208,0.927 -4.346,3.353 v -4.28 h -1.207 v 6.741 l 1.207,-0.927 4.346,-3.352 V 0.01 Z"
             style="fill:#0c2635;fill-opacity:1;fill-rule:nonzero;stroke:none"
             id="path150" />
        </g>
        <g
           id="g152"
           transform="translate(404.4203,65.4649)">
          <path
             d="m 0,0 v 0.036 c 0,0.34 -0.278,0.618 -0.618,0.618 H -3.36 c -0.337,0 -0.618,-0.278 -0.618,-0.618 V 0 c 0,-0.34 0.281,-0.618 0.618,-0.618 h 2.433 c 0.628,0 1.19,-0.273 1.576,-0.695 0.028,-0.031 0.046,-0.059 0.077,-0.088 0.299,-0.368 0.482,-0.839 0.482,-1.351 0,-1.18 -0.956,-2.135 -2.135,-2.135 h -2.114 c -1.176,0 -2.134,0.955 -2.134,2.135 h 1.207 c 0,-0.513 0.415,-0.927 0.927,-0.927 h 2.114 c 0.512,0 0.937,0.414 0.937,0.927 0,0.512 -0.425,0.926 -0.937,0.926 H -3.36 c -0.492,0 -0.935,0.194 -1.264,0.513 -0.088,0.085 -0.165,0.183 -0.232,0.288 -0.203,0.289 -0.319,0.647 -0.319,1.033 v 0.038 c 0,1.004 0.811,1.826 1.815,1.826 h 2.742 c 1.004,0 1.826,-0.822 1.826,-1.826 V 0.008 Z"
             style="fill:#0c2635;fill-opacity:1;fill-rule:nonzero;stroke:none"
             id="path154" />
        </g>
        <g
           id="g156"
           transform="translate(304.5332,103.2803)">
          <path
             d="m 0,0 c -0.218,0.819 0.31,1.192 0.64,1.625 2.596,3.406 5.209,6.8 7.818,10.197 1.756,2.285 3.512,4.57 5.269,6.854 0.201,0.261 0.425,0.507 0.607,0.78 0.705,1.054 1.655,1.541 2.942,1.408 0.653,-0.067 1.318,-0.009 1.977,-0.009 18.96,-0.001 37.921,-0.002 56.881,-0.001 2.143,0 4.239,0.174 6.352,0.717 3.743,0.962 5.071,6.181 2.207,9.278 -0.526,0.569 -1.35,1.016 -2.11,1.181 -1.599,0.348 -3.246,0.647 -4.875,0.656 -9.81,0.056 -19.62,-0.008 -29.429,0.031 -6.922,0.027 -13.847,0.059 -20.766,0.268 -4.487,0.135 -8.802,1.337 -12.892,3.148 -3.919,1.735 -7.167,4.372 -9.436,8.079 -1.62,2.646 -2.464,5.587 -2.859,8.622 -0.63,4.831 0.002,9.535 1.886,14.046 1.541,3.687 4.102,6.532 7.377,8.754 4.313,2.925 9.182,4.419 14.248,5.31 3.905,0.687 7.864,0.853 11.825,0.854 15.663,0.002 31.326,-0.002 46.989,-0.003 6.924,0 13.848,0.008 20.773,0.002 0.803,-10e-4 1.606,-0.066 2.645,-0.111 -0.208,-0.487 -0.271,-0.787 -0.439,-1.009 -4.182,-5.51 -8.375,-11.013 -12.566,-16.516 -0.549,-0.721 -1.21,-1.381 -1.634,-2.169 -0.733,-1.365 -1.833,-1.646 -3.275,-1.642 -14.343,0.036 -28.687,0.023 -43.031,0.023 -3.957,0 -7.913,0.015 -11.87,-0.009 -1.729,-0.011 -3.45,-0.081 -5.138,-0.59 -1.959,-0.591 -3.03,-1.898 -3.387,-3.846 -0.588,-3.2 0.843,-5.531 4.034,-6.302 1.588,-0.384 3.252,-0.611 4.884,-0.628 6.759,-0.068 13.519,-0.029 20.279,-0.03 8.491,-0.002 16.981,10e-4 25.471,-0.009 4.469,-0.005 8.891,-0.459 13.207,-1.65 3.608,-0.995 6.94,-2.547 9.78,-5.07 2.596,-2.306 4.478,-5.064 5.348,-8.423 1.732,-6.691 1.168,-13.262 -1.453,-19.621 -1.111,-2.696 -2.995,-4.901 -5.213,-6.813 C 99.943,4.691 96.291,3.027 92.398,1.845 88.672,0.713 84.826,0.234 80.954,-0.02 79.064,-0.145 77.165,-0.184 75.27,-0.186 52.189,-0.206 29.107,-0.212 6.025,-0.218 4.294,-0.219 2.563,-0.202 0.832,-0.171 0.535,-0.166 0.239,-0.052 0,0"
             style="fill:#1f2d6e;fill-opacity:1;fill-rule:nonzero;stroke:none"
             id="path158" />
        </g>
        <g
           id="g160"
           transform="translate(303.7228,124.0299)">
          <path
             d="m 0,0 c -1.13,-2.106 -14.809,-19.877 -16.223,-20.942 -25.982,-0.002 -52.166,0 -78.452,-0.001 -0.112,0.73 -0.225,1.196 -0.248,1.667 -0.036,0.74 -0.015,1.483 -0.015,2.225 0.002,22.418 0.005,44.835 0.007,67.253 0,2.802 -0.007,5.604 0.002,8.407 0.002,0.732 0.054,1.464 0.079,2.087 0.731,0.703 1.51,0.511 2.226,0.514 5.357,0.021 10.714,0.021 16.072,0.02 24.15,-0.002 48.3,-0.006 72.45,-0.009 1.148,0 2.296,0 3.66,0 -0.14,-0.543 -0.139,-0.966 -0.339,-1.243 -1.107,-1.534 -2.256,-3.038 -3.405,-4.542 -3.251,-4.252 -6.431,-8.561 -9.789,-12.727 -2.742,-3.402 -1.39,-2.847 -5.906,-2.85 -15.661,-0.012 -31.321,0 -46.982,-0.006 -0.723,0 -1.446,-0.084 -2.113,-0.126 -0.554,-1.993 -0.564,-7.431 -0.025,-9.508 2.557,-0.39 5.183,-0.135 7.794,-0.178 2.72,-0.045 5.44,-0.01 8.16,-0.01 2.638,0 5.275,0.001 7.913,0 2.72,-10e-4 5.44,-0.01 8.16,-0.006 2.637,0.003 5.275,0.022 7.912,0.026 2.638,0.003 5.275,-0.003 7.912,-0.007 2.72,-0.004 5.44,-0.011 8.16,-0.014 2.624,-0.002 5.248,0 7.743,0 0.52,-0.734 0.088,-1.127 -0.185,-1.492 -0.987,-1.318 -2.016,-2.605 -3.031,-3.902 -3.146,-4.021 -6.298,-8.037 -9.436,-12.064 -0.644,-0.826 -1.367,-1.394 -2.504,-1.265 -0.651,0.074 -1.317,0.011 -1.977,0.011 -14.588,0 -29.177,0.003 -43.765,-0.007 -0.969,0 -1.967,0.156 -2.86,-0.226 -0.468,-1.787 -0.573,-6.963 -0.234,-10.378 0.551,-0.693 1.339,-0.522 2.055,-0.526 3.873,-0.02 7.747,-0.018 11.621,-0.017 15.001,0.003 30.001,0.009 45.002,0.013 2.803,0.001 5.605,0.009 8.407,-0.007 C -1.517,0.166 -0.882,0.072 0,0"
             style="fill:#1f2d6e;fill-opacity:1;fill-rule:nonzero;stroke:none"
             id="path162" />
        </g>
        <g
           id="g164"
           transform="translate(100.6119,164.0648)">
          <path
             d="m 0,0 c 0.394,0.861 0.577,1.395 0.862,1.865 2.954,4.866 6.118,9.59 10.005,13.768 1.508,1.621 3.232,3.045 4.898,4.513 0.958,0.845 2.094,1.229 3.416,1.148 1.313,-0.081 2.636,-0.016 3.955,-0.016 24.811,0 49.623,0.002 74.434,-0.008 0.949,0 1.93,0.149 2.843,-0.177 -0.031,-0.315 0.014,-0.53 -0.071,-0.613 C 93.548,13.775 86.744,7.08 79.895,0.338 h -7.699 c -2.473,0 -4.947,0.026 -7.419,-0.007 -2.539,-0.034 -5.085,0.151 -7.761,-0.133 -0.085,-0.535 -0.202,-0.997 -0.223,-1.464 -0.036,-0.823 -0.015,-1.648 -0.015,-2.473 0,-18.133 0.002,-36.267 -0.007,-54.4 0,-0.969 0.132,-1.962 -0.257,-3.034 -2.805,-0.34 -5.592,-0.118 -8.368,-0.154 -2.885,-0.038 -5.77,-0.003 -8.655,-0.001 -2.792,0.001 -5.585,0 -8.247,0 -0.685,0.903 -0.51,1.755 -0.516,2.562 -0.023,2.885 -0.013,5.77 -0.013,8.655 0,15.908 0.003,31.816 -0.002,47.724 0,0.889 -0.06,1.779 -0.092,2.66 C 29.631,0.828 28.71,0.595 27.837,0.576 19.596,0.398 11.357,0.194 3.116,0.003 2.216,-0.018 1.315,0 0,0"
             style="fill:#10afff;fill-opacity:1;fill-rule:nonzero;stroke:none"
             id="path166" />
        </g>
        <g
           id="g168"
           transform="translate(91.5994,210.8861)">
          <path
             d="m 0,0 c -2.198,-0.321 -17.544,-0.335 -19.832,-0.032 -0.105,0.407 -0.322,0.864 -0.324,1.321 -0.021,5.686 -0.014,11.372 -0.004,17.059 0.001,0.322 0.086,0.644 0.147,1.07 0.373,0.117 0.748,0.335 1.123,0.336 5.851,0.028 11.702,0.032 17.553,0.027 0.396,-10e-4 0.792,-0.114 1.284,-0.19 C 0.052,19.152 0.223,18.767 0.223,18.382 0.23,12.614 0.218,6.845 0.198,1.077 0.197,0.763 0.086,0.449 0,0"
             style="fill:#ffb93c;fill-opacity:1;fill-rule:nonzero;stroke:none"
             id="path170" />
        </g>
        <g
           id="g172"
           transform="translate(201.162,227.8005)">
          <path
             d="m 0,0 c -23.63,11.545 -47.944,13.728 -72.911,5.196 -18.298,-6.252 -33.059,-17.44 -44.362,-33.101 -22.471,-31.137 -23.047,-73.752 -1.477,-104.923 13.254,-19.154 31.074,-31.869 53.717,-37.537 22.556,-5.646 44.238,-2.804 65.064,7.441 -36.764,-31.353 -99.414,-33.852 -140.401,8.044 -40.658,41.559 -40.006,107.672 1.322,148.201 C -97.261,34.299 -35.487,30.484 0,0"
             style="fill:#1f2d6e;fill-opacity:1;fill-rule:nonzero;stroke:none"
             id="path174" />
        </g>
        <g
           id="g176"
           transform="translate(105.9875,215.0332)">
          <path
             d="m 0,0 c 36.255,30.644 98.198,22.88 125.457,-20.987 -5.586,0 -10.842,-0.001 -16.097,0 -4.717,10e-4 -9.891,-1.209 -14.019,0.352 -4.019,1.519 -6.864,5.996 -10.4,8.965 C 60.091,9.204 32.602,13.396 2.574,1.197 1.699,0.841 0.857,0.401 0,0"
             style="fill:#10afff;fill-opacity:1;fill-rule:nonzero;stroke:none"
             id="path178" />
        </g>
      </g>
    </g>
  </g>
</svg>
